# xmcd CD database file
#
# Track frame offsets:
#	150
#	23880
#	40710
#	58490
#	83412
#	101082
#	129852
#	150827
#	174135
#
# Disc length: 2605 seconds
#
# Revision: 0
# Processed by: cddbd v1.4PL0 Copyright (c) Steve Scherf et al.
# Submitted via: CDex 1.50Beta5
#
DISCID=5c0a2b09
DTITLE=Betsy Braud, O.W.O., jazz nurse - Do you want to be healed?
DYEAR=2001
DGENRE=Jazz
TTITLE0=3 a.m.
TTITLE1=Estou Buscando
TTITLE2=Balewa
TTITLE3=Indoor China
TTITLE4=Sita Pigana Na Wewe
TTITLE5=A Walk at Twilight
TTITLE6=Mes Trois Filles
TTITLE7=Wayfarin' Stranger
TTITLE8=Samba de Paulistas
EXTD=YEAR: 2001
EXTT0=
EXTT1=
EXTT2=
EXTT3=
EXTT4=
EXTT5=
EXTT6=
EXTT7=
EXTT8=
PLAYORDER=
